<mxfile host="Electron" modified="2023-11-10T10:31:06.518Z" agent="Mozilla/5.0 (Windows NT 10.0; Win64; x64) AppleWebKit/537.36 (KHTML, like Gecko) draw.io/22.0.3 Chrome/114.0.5735.289 Electron/25.8.4 Safari/537.36" etag="B8k8nm_1YLeV7VYiSWFF" version="22.0.3" type="device">
  <diagram name="PÃ¡gina-1" id="jUD7Iw4MG4sEJ5evJgBF">
    <mxGraphModel dx="1985" dy="1082" grid="1" gridSize="10" guides="1" tooltips="1" connect="1" arrows="1" fold="1" page="1" pageScale="1" pageWidth="1169" pageHeight="827" math="0" shadow="0">
      <root>
        <mxCell id="0" />
        <mxCell id="1" parent="0" />
        <mxCell id="b-rafdnH2amOiktr29FW-1" value="Hombre" style="whiteSpace=wrap;html=1;align=center;" vertex="1" parent="1">
          <mxGeometry x="682.5" y="630" width="100" height="40" as="geometry" />
        </mxCell>
        <mxCell id="b-rafdnH2amOiktr29FW-2" value="Mujeres" style="whiteSpace=wrap;html=1;align=center;" vertex="1" parent="1">
          <mxGeometry x="362.5" y="630" width="100" height="40" as="geometry" />
        </mxCell>
        <mxCell id="b-rafdnH2amOiktr29FW-3" value="Empleado" style="whiteSpace=wrap;html=1;align=center;" vertex="1" parent="1">
          <mxGeometry x="525" y="120" width="100" height="40" as="geometry" />
        </mxCell>
        <mxCell id="b-rafdnH2amOiktr29FW-5" value="Director" style="whiteSpace=wrap;html=1;align=center;" vertex="1" parent="1">
          <mxGeometry x="522.5" y="400" width="100" height="40" as="geometry" />
        </mxCell>
        <mxCell id="b-rafdnH2amOiktr29FW-7" value="Socio" style="whiteSpace=wrap;html=1;align=center;" vertex="1" parent="1">
          <mxGeometry x="280" y="400" width="100" height="40" as="geometry" />
        </mxCell>
        <mxCell id="b-rafdnH2amOiktr29FW-8" value="Administrativo" style="whiteSpace=wrap;html=1;align=center;" vertex="1" parent="1">
          <mxGeometry x="760" y="400" width="100" height="40" as="geometry" />
        </mxCell>
        <mxCell id="b-rafdnH2amOiktr29FW-9" value="ISA" style="strokeWidth=2;html=1;shape=mxgraph.flowchart.merge_or_storage;whiteSpace=wrap;" vertex="1" parent="1">
          <mxGeometry x="527.5" y="250" width="95" height="60" as="geometry" />
        </mxCell>
        <mxCell id="b-rafdnH2amOiktr29FW-10" value="" style="endArrow=none;html=1;rounded=0;" edge="1" parent="1" source="b-rafdnH2amOiktr29FW-9" target="b-rafdnH2amOiktr29FW-5">
          <mxGeometry relative="1" as="geometry">
            <mxPoint x="865" y="170" as="sourcePoint" />
            <mxPoint x="1025" y="170" as="targetPoint" />
          </mxGeometry>
        </mxCell>
        <mxCell id="b-rafdnH2amOiktr29FW-11" value="" style="endArrow=none;html=1;rounded=0;exitX=0.305;exitY=0.66;exitDx=0;exitDy=0;exitPerimeter=0;" edge="1" parent="1" source="b-rafdnH2amOiktr29FW-9" target="b-rafdnH2amOiktr29FW-7">
          <mxGeometry relative="1" as="geometry">
            <mxPoint x="865" y="170" as="sourcePoint" />
            <mxPoint x="1025" y="170" as="targetPoint" />
          </mxGeometry>
        </mxCell>
        <mxCell id="b-rafdnH2amOiktr29FW-12" value="" style="endArrow=none;html=1;rounded=0;entryX=0.5;entryY=0;entryDx=0;entryDy=0;exitX=0.689;exitY=0.662;exitDx=0;exitDy=0;exitPerimeter=0;" edge="1" parent="1" source="b-rafdnH2amOiktr29FW-9" target="b-rafdnH2amOiktr29FW-8">
          <mxGeometry relative="1" as="geometry">
            <mxPoint x="865" y="170" as="sourcePoint" />
            <mxPoint x="1025" y="170" as="targetPoint" />
          </mxGeometry>
        </mxCell>
        <mxCell id="b-rafdnH2amOiktr29FW-13" value="" style="endArrow=none;html=1;rounded=0;" edge="1" parent="1" source="b-rafdnH2amOiktr29FW-9" target="b-rafdnH2amOiktr29FW-3">
          <mxGeometry relative="1" as="geometry">
            <mxPoint x="665" y="100" as="sourcePoint" />
            <mxPoint x="825" y="100" as="targetPoint" />
          </mxGeometry>
        </mxCell>
        <mxCell id="b-rafdnH2amOiktr29FW-20" value="Citan" style="shape=rhombus;perimeter=rhombusPerimeter;whiteSpace=wrap;html=1;align=center;" vertex="1" parent="1">
          <mxGeometry x="515" y="530" width="120" height="60" as="geometry" />
        </mxCell>
        <mxCell id="b-rafdnH2amOiktr29FW-21" value="" style="endArrow=none;html=1;rounded=0;" edge="1" parent="1" source="b-rafdnH2amOiktr29FW-5" target="b-rafdnH2amOiktr29FW-20">
          <mxGeometry relative="1" as="geometry">
            <mxPoint x="620" y="390" as="sourcePoint" />
            <mxPoint x="574.2592592592591" y="490.37037037037044" as="targetPoint" />
          </mxGeometry>
        </mxCell>
        <mxCell id="b-rafdnH2amOiktr29FW-23" value="" style="endArrow=none;html=1;rounded=0;" edge="1" parent="1" source="b-rafdnH2amOiktr29FW-20" target="b-rafdnH2amOiktr29FW-2">
          <mxGeometry relative="1" as="geometry">
            <mxPoint x="642.5" y="400" as="sourcePoint" />
            <mxPoint x="802.5" y="400" as="targetPoint" />
            <Array as="points">
              <mxPoint x="412.5" y="560" />
            </Array>
          </mxGeometry>
        </mxCell>
        <mxCell id="b-rafdnH2amOiktr29FW-24" value="" style="endArrow=none;html=1;rounded=0;" edge="1" parent="1" source="b-rafdnH2amOiktr29FW-20" target="b-rafdnH2amOiktr29FW-1">
          <mxGeometry relative="1" as="geometry">
            <mxPoint x="642.5" y="400" as="sourcePoint" />
            <mxPoint x="802.5" y="400" as="targetPoint" />
            <Array as="points">
              <mxPoint x="732.5" y="560" />
            </Array>
          </mxGeometry>
        </mxCell>
        <mxCell id="b-rafdnH2amOiktr29FW-25" value="Boda" style="shape=rhombus;perimeter=rhombusPerimeter;whiteSpace=wrap;html=1;align=center;" vertex="1" parent="1">
          <mxGeometry x="515.01" y="620" width="120" height="60" as="geometry" />
        </mxCell>
        <mxCell id="b-rafdnH2amOiktr29FW-27" value="" style="endArrow=none;html=1;rounded=0;" edge="1" parent="1" source="b-rafdnH2amOiktr29FW-2" target="b-rafdnH2amOiktr29FW-25">
          <mxGeometry relative="1" as="geometry">
            <mxPoint x="642.5" y="400" as="sourcePoint" />
            <mxPoint x="802.5" y="400" as="targetPoint" />
          </mxGeometry>
        </mxCell>
        <mxCell id="b-rafdnH2amOiktr29FW-28" value="" style="endArrow=none;html=1;rounded=0;" edge="1" parent="1" source="b-rafdnH2amOiktr29FW-25" target="b-rafdnH2amOiktr29FW-1">
          <mxGeometry relative="1" as="geometry">
            <mxPoint x="642.5" y="400" as="sourcePoint" />
            <mxPoint x="802.5" y="400" as="targetPoint" />
          </mxGeometry>
        </mxCell>
        <mxCell id="b-rafdnH2amOiktr29FW-29" value="" style="verticalLabelPosition=bottom;verticalAlign=top;html=1;shape=mxgraph.basic.arc;startAngle=0.33714723650030126;endAngle=0.7406487203793617;rotation=-15;" vertex="1" parent="1">
          <mxGeometry x="489.16" y="193.07999999999998" width="171.69" height="173.85" as="geometry" />
        </mxCell>
        <mxCell id="b-rafdnH2amOiktr29FW-30" value="subordinados" style="ellipse;whiteSpace=wrap;html=1;align=center;" vertex="1" parent="1">
          <mxGeometry x="160" y="400" width="100" height="40" as="geometry" />
        </mxCell>
        <mxCell id="b-rafdnH2amOiktr29FW-31" value="subordinados" style="ellipse;whiteSpace=wrap;html=1;align=center;" vertex="1" parent="1">
          <mxGeometry x="400" y="400" width="100" height="40" as="geometry" />
        </mxCell>
        <mxCell id="b-rafdnH2amOiktr29FW-33" value="subordinados" style="ellipse;whiteSpace=wrap;html=1;align=center;" vertex="1" parent="1">
          <mxGeometry x="880" y="400" width="100" height="40" as="geometry" />
        </mxCell>
        <mxCell id="b-rafdnH2amOiktr29FW-34" value="" style="endArrow=none;html=1;rounded=0;" edge="1" parent="1" source="b-rafdnH2amOiktr29FW-30" target="b-rafdnH2amOiktr29FW-7">
          <mxGeometry relative="1" as="geometry">
            <mxPoint x="500" y="390" as="sourcePoint" />
            <mxPoint x="660" y="390" as="targetPoint" />
          </mxGeometry>
        </mxCell>
        <mxCell id="b-rafdnH2amOiktr29FW-35" value="" style="endArrow=none;html=1;rounded=0;" edge="1" parent="1" source="b-rafdnH2amOiktr29FW-31" target="b-rafdnH2amOiktr29FW-5">
          <mxGeometry relative="1" as="geometry">
            <mxPoint x="500" y="390" as="sourcePoint" />
            <mxPoint x="660" y="390" as="targetPoint" />
          </mxGeometry>
        </mxCell>
        <mxCell id="b-rafdnH2amOiktr29FW-36" value="" style="endArrow=none;html=1;rounded=0;" edge="1" parent="1" source="b-rafdnH2amOiktr29FW-33" target="b-rafdnH2amOiktr29FW-8">
          <mxGeometry relative="1" as="geometry">
            <mxPoint x="500" y="390" as="sourcePoint" />
            <mxPoint x="660" y="390" as="targetPoint" />
          </mxGeometry>
        </mxCell>
        <mxCell id="b-rafdnH2amOiktr29FW-38" value="(1,1)" style="text;strokeColor=none;fillColor=none;spacingLeft=4;spacingRight=4;overflow=hidden;rotatable=0;points=[[0,0.5],[1,0.5]];portConstraint=eastwest;fontSize=12;whiteSpace=wrap;html=1;" vertex="1" parent="1">
          <mxGeometry x="582.5" y="440" width="40" height="30" as="geometry" />
        </mxCell>
        <mxCell id="b-rafdnH2amOiktr29FW-39" value="(1,n)" style="text;strokeColor=none;fillColor=none;spacingLeft=4;spacingRight=4;overflow=hidden;rotatable=0;points=[[0,0.5],[1,0.5]];portConstraint=eastwest;fontSize=12;whiteSpace=wrap;html=1;" vertex="1" parent="1">
          <mxGeometry x="730" y="600" width="40" height="30" as="geometry" />
        </mxCell>
        <mxCell id="b-rafdnH2amOiktr29FW-40" value="1:N:M" style="text;strokeColor=none;fillColor=none;spacingLeft=4;spacingRight=4;overflow=hidden;rotatable=0;points=[[0,0.5],[1,0.5]];portConstraint=eastwest;fontSize=12;whiteSpace=wrap;html=1;" vertex="1" parent="1">
          <mxGeometry x="552.5" y="590" width="40" height="30" as="geometry" />
        </mxCell>
        <mxCell id="b-rafdnH2amOiktr29FW-41" value="(1,n)" style="text;strokeColor=none;fillColor=none;spacingLeft=4;spacingRight=4;overflow=hidden;rotatable=0;points=[[0,0.5],[1,0.5]];portConstraint=eastwest;fontSize=12;whiteSpace=wrap;html=1;" vertex="1" parent="1">
          <mxGeometry x="370" y="600" width="40" height="30" as="geometry" />
        </mxCell>
        <mxCell id="b-rafdnH2amOiktr29FW-42" value="(1,1)" style="text;strokeColor=none;fillColor=none;spacingLeft=4;spacingRight=4;overflow=hidden;rotatable=0;points=[[0,0.5],[1,0.5]];portConstraint=eastwest;fontSize=12;whiteSpace=wrap;html=1;" vertex="1" parent="1">
          <mxGeometry x="580" y="220" width="40" height="30" as="geometry" />
        </mxCell>
        <mxCell id="b-rafdnH2amOiktr29FW-43" value="(0,1)" style="text;strokeColor=none;fillColor=none;spacingLeft=4;spacingRight=4;overflow=hidden;rotatable=0;points=[[0,0.5],[1,0.5]];portConstraint=eastwest;fontSize=12;whiteSpace=wrap;html=1;" vertex="1" parent="1">
          <mxGeometry x="422.5" y="320" width="40" height="30" as="geometry" />
        </mxCell>
        <mxCell id="b-rafdnH2amOiktr29FW-44" value="(0,1)" style="text;strokeColor=none;fillColor=none;spacingLeft=4;spacingRight=4;overflow=hidden;rotatable=0;points=[[0,0.5],[1,0.5]];portConstraint=eastwest;fontSize=12;whiteSpace=wrap;html=1;" vertex="1" parent="1">
          <mxGeometry x="540" y="320" width="40" height="30" as="geometry" />
        </mxCell>
        <mxCell id="b-rafdnH2amOiktr29FW-45" value="(0,1)" style="text;strokeColor=none;fillColor=none;spacingLeft=4;spacingRight=4;overflow=hidden;rotatable=0;points=[[0,0.5],[1,0.5]];portConstraint=eastwest;fontSize=12;whiteSpace=wrap;html=1;" vertex="1" parent="1">
          <mxGeometry x="690" y="320" width="40" height="30" as="geometry" />
        </mxCell>
      </root>
    </mxGraphModel>
  </diagram>
</mxfile>
